<svg xmlns="http://www.w3.org/2000/svg" xmlns:xlink="http://www.w3.org/1999/xlink" version="1.1" x="0px" y="0px" viewBox="0 0 100 125" style="enable-background:new 0 0 100 100;" xml:space="preserve"><path d="M50,22c-15.5,0-28,12.5-28,28v0c0,15.5,12.5,28,28,28s28-12.5,28-28v0C78,34.5,65.5,22,50,22z M52,66c0,1.1-0.9,2-2,2  s-2-0.9-2-2V45c0-1.1,0.9-2,2-2s2,0.9,2,2V66z M50,39c-1.7,0-3-1.3-3-3s1.3-3,3-3s3,1.3,3,3S51.7,39,50,39z"/><text x="0" y="115" fill="#000000" font-size="5px" font-weight="bold" font-family="'Helvetica Neue', Helvetica, Arial-Unicode, Arial, Sans-serif">Created by Setyo Ari Wibowo</text><text x="0" y="120" fill="#000000" font-size="5px" font-weight="bold" font-family="'Helvetica Neue', Helvetica, Arial-Unicode, Arial, Sans-serif">from the Noun Project</text></svg>