<svg xmlns="http://www.w3.org/2000/svg" xmlns:xlink="http://www.w3.org/1999/xlink" version="1.1" x="0px" y="0px" viewBox="0 0 100 125" enable-background="new 0 0 100 100" xml:space="preserve"><path d="M33.823,10.5c1.828,0,3.313,1.483,3.313,3.313s-1.484,3.313-3.313,3.313c-1.83,0-3.313-1.483-3.313-3.313  S31.993,10.5,33.823,10.5z M22.323,16.148l2.315-2.315l-2.315-2.315l0.707-0.707l2.315,2.315l2.315-2.315l0.707,0.707l-2.315,2.315  l2.315,2.315l-0.707,0.707l-2.315-2.315l-2.315,2.315L22.323,16.148z M34.189,91.708h-8.501V77.542h8.501V91.708z M34.189,76.979  h-8.501V62.813h8.501V76.979z M34.189,62.229h-8.501V48.062h8.501V62.229z M34.189,47.493h-8.501V33.328h8.501V47.493z   M34.189,32.75h-8.501V18.583h8.501V32.75z M43.251,91.708H34.75V77.542h8.501V91.708z M43.251,76.979H34.75V62.813h8.501V76.979z   M43.251,62.229H34.75V48.062h8.501V62.229z M43.251,37.129c-1.691,0.149-3.021,1.553-3.021,3.283c0,1.729,1.33,3.133,3.021,3.283  v3.798H34.75V33.328h8.501V37.129z M43.251,32.75H34.75V18.583h8.501V32.75z M52.314,91.708h-8.501V77.542h8.501V91.708z   M52.314,76.979h-8.501V62.813h8.501V76.979z M52.314,62.229h-8.501V48.062h8.501V62.229z M52.314,37.129  c-1.692,0.149-3.022,1.553-3.022,3.283c0,1.729,1.33,3.133,3.022,3.283v3.798h-8.501v-3.796c1.7-0.14,3.042-1.55,3.042-3.285  c0-1.737-1.342-3.146-3.042-3.285v-3.799h8.501V37.129z M52.314,32.75h-8.501V18.583h8.501V32.75z M61.377,91.708h-8.502V77.542  h8.502V91.708z M61.377,76.979h-8.502V62.813h8.502V76.979z M61.377,62.229h-8.502V48.062h8.502V62.229z M61.377,37.132  c-1.677,0.165-2.99,1.561-2.99,3.28c0,1.718,1.313,3.116,2.99,3.28v3.801h-8.502v-3.796c1.7-0.14,3.043-1.549,3.043-3.285  c0-1.738-1.343-3.146-3.043-3.285v-3.799h8.502V37.132z M61.377,32.75h-8.502V18.583h8.502V32.75z M70.459,91.708h-8.5V77.542h8.5  V91.708z M70.459,76.979h-8.5V62.813h8.5V76.979z M70.459,62.229h-8.5V48.062h8.5V62.229z M70.459,47.493h-8.5v-3.795  c1.705-0.135,3.053-1.547,3.053-3.286c0-1.741-1.348-3.152-3.053-3.286v-3.798h8.5V47.493z M70.459,32.75h-8.5V18.583h8.5V32.75z   M70.73,17.125c-1.83,0-3.313-1.483-3.313-3.313S68.9,10.5,70.73,10.5c1.828,0,3.313,1.483,3.313,3.313S72.559,17.125,70.73,17.125z  "/><text x="0" y="115" fill="#000000" font-size="5px" font-weight="bold" font-family="'Helvetica Neue', Helvetica, Arial-Unicode, Arial, Sans-serif">Created by Fabio Granara</text><text x="0" y="120" fill="#000000" font-size="5px" font-weight="bold" font-family="'Helvetica Neue', Helvetica, Arial-Unicode, Arial, Sans-serif">from the Noun Project</text></svg>