<svg xmlns:dc="http://purl.org/dc/elements/1.1/" xmlns:cc="http://creativecommons.org/ns#" xmlns:rdf="http://www.w3.org/1999/02/22-rdf-syntax-ns#" xmlns:svg="http://www.w3.org/2000/svg" xmlns="http://www.w3.org/2000/svg" xmlns:sodipodi="http://sodipodi.sourceforge.net/DTD/sodipodi-0.dtd" xmlns:inkscape="http://www.inkscape.org/namespaces/inkscape" version="1.1" x="0px" y="0px" viewBox="0 0 100 125"><g transform="translate(0,-952.36218)"><path style="color:#000000;enable-background:accumulate;" d="m 46.9375,980.36216 -1.53125,5.34375 c -1.38926,0.38279 -2.71191,0.9276 -3.9375,1.625 l -4.84375,-2.6875 -4.34375,4.34375 2.6875,4.84375 c -0.69732,1.2254 -1.24228,2.54831 -1.625,3.9375 L 28,999.29966 l 0,6.12504 5.34375,1.5312 c 0.38272,1.3893 0.92768,2.7119 1.625,3.9375 l -2.6875,4.8438 4.34375,4.3437 4.84375,-2.6875 c 1.22559,0.6974 2.54824,1.2423 3.9375,1.625 l 1.53125,5.3438 6.125,0 1.53125,-5.3438 c 1.38925,-0.3827 2.71191,-0.9276 3.9375,-1.625 l 4.84375,2.6875 4.34375,-4.3437 -2.6875,-4.8438 c 0.69733,-1.2256 1.24227,-2.5482 1.625,-3.9375 L 72,1005.4247 l 0,-6.12504 -5.34375,-1.53125 c -0.38273,-1.38919 -0.92767,-2.7121 -1.625,-3.9375 l 2.6875,-4.84375 -4.34375,-4.34375 -4.84375,2.6875 c -1.22559,-0.6974 -2.54825,-1.24221 -3.9375,-1.625 l -1.53125,-5.34375 -6.125,0 z m 3.0625,14 c 4.41827,0 8,3.58177 8,8.00004 0,4.4182 -3.58173,8 -8,8 -4.41827,0 -8,-3.5818 -8,-8 0,-4.41827 3.58173,-8.00004 8,-8.00004 z" fill="#000000" stroke="none" marker="none" visibility="visible" display="inline" overflow="visible"/></g><text x="0" y="115" fill="#000000" font-size="5px" font-weight="bold" font-family="'Helvetica Neue', Helvetica, Arial-Unicode, Arial, Sans-serif">Created by il Capitano</text><text x="0" y="120" fill="#000000" font-size="5px" font-weight="bold" font-family="'Helvetica Neue', Helvetica, Arial-Unicode, Arial, Sans-serif">from the Noun Project</text></svg>