<?xml version="1.0" encoding="utf-8"?>
<!-- Svg Vector Icons : http://www.onlinewebfonts.com/icon -->
<!DOCTYPE svg PUBLIC "-//W3C//DTD SVG 1.1//EN" "http://www.w3.org/Graphics/SVG/1.1/DTD/svg11.dtd">
<svg version="1.1" xmlns="http://www.w3.org/2000/svg" xmlns:xlink="http://www.w3.org/1999/xlink" x="0px" y="0px" viewBox="0 0 1000 1000" enable-background="new 0 0 1000 1000" xml:space="preserve">
<metadata> Svg Vector Icons : http://www.onlinewebfonts.com/icon </metadata>
<g><path d="M500,928.8L500,928.8c236.8,0,428.8-192,428.8-428.8S736.8,71.3,500,71.3S71.3,263.2,71.3,500S263.2,928.8,500,928.8L500,928.8z M500,990L500,990C229.4,990,10,770.6,10,500S229.4,10,500,10s490,219.4,490,490S770.6,990,500,990L500,990z M239.7,500c0-25.4,20.4-45.9,46.2-45.9h428.2c25.5,0,46.2,20.4,46.2,45.9l0,0c0,25.4-20.4,45.9-46.2,45.9H285.9C260.4,545.9,239.7,525.5,239.7,500L239.7,500z M500,760.3c-25.4,0-45.9-20.4-45.9-46.2V285.9c0-25.5,20.4-46.2,45.9-46.2l0,0c25.4,0,45.9,20.4,45.9,46.2v428.2C545.9,739.6,525.5,760.3,500,760.3L500,760.3z"/></g>
</svg>