<svg height="100" preserveAspectRatio="xMinYMin" style="position:relative;top:-.150024px" viewBox="0 0 100 100" width="100" xmlns="http://www.w3.org/2000/svg" overflow="hidden"><circle cx="30" cy="11" r="3.5" stroke="#000"/><circle cx="40" cy="35" r="3.5" stroke="#000"/><circle cx="50" cy="35" r="3.5" stroke="#000"/><circle cx="60" cy="35" r="3.5" stroke="#000"/><circle cx="70" cy="11" r="3.5" stroke="#000"/><path d="M16 7l8 8m-8 0l8-8" stroke="#000" fill="none"/><path d="M20 18h50v2H20v-2" stroke="#000"/><path d="M20 20h50m-50 0v50m0-40h50M30 20v50M20 40h50M40 20v50M20 50h50M50 20v50M20 60h50M60 20v50m-40 0h50m0-50v50" stroke="#000" fill="none"/></svg>