<svg xmlns="http://www.w3.org/2000/svg" viewBox="0 0 100 100" width="100" height="100"><path d="M45.27 1.94l-2.897 9.397a33.85 33.85 0 0 0-7.444 2.858L25.77 9.468l-8.214 7.639 5.083 8.517a32.493 30.218 0 0 0-3.073 6.923L9.462 35.239v10.772l10.104 2.69a28.942 28.942 0 0 0 3.073 6.925l-5.083 8.517 8.214 7.639 9.159-4.727a32.49 30.214 0 0 0 7.444 2.858l2.897 9.396h11.579l2.897-9.396a32.49 30.214 0 0 0 7.444-2.858l9.159 4.727 8.213-7.639-5.082-8.517a32.497 30.221 0 0 0 3.072-6.923l10.105-2.692V35.239l-10.105-2.69a32.493 30.218 0 0 0-3.072-6.925l5.082-8.517-8.213-7.639-9.16 4.727a32.497 30.221 0 0 0-7.443-2.858l-2.897-9.396zm5.79 24.618a15.126 14.067 0 1 1 0 28.134 15.126 14.067 0 0 1 0-28.134z" overflow="visible" color="#000"/></svg>