<?xml version="1.0" encoding="UTF-8" standalone="no"?>
<svg
   xmlns:dc="http://purl.org/dc/elements/1.1/"
   xmlns:cc="http://creativecommons.org/ns#"
   xmlns:rdf="http://www.w3.org/1999/02/22-rdf-syntax-ns#"
   xmlns:svg="http://www.w3.org/2000/svg"
   xmlns="http://www.w3.org/2000/svg"
   xmlns:sodipodi="http://sodipodi.sourceforge.net/DTD/sodipodi-0.dtd"
   xmlns:inkscape="http://www.inkscape.org/namespaces/inkscape"
   viewBox="0 0 88.138222 85.276527"
   version="1.1"
   id="svg4558"
   sodipodi:docname="strat-ico.svg"
   width="88.138222"
   height="85.276527"
   inkscape:version="0.92.1 r">
  <metadata
     id="metadata4564">
    <rdf:RDF>
      <cc:Work
         rdf:about="">
        <dc:format>image/svg+xml</dc:format>
        <dc:type
           rdf:resource="http://purl.org/dc/dcmitype/StillImage" />
        <dc:title></dc:title>
      </cc:Work>
    </rdf:RDF>
  </metadata>
  <defs
     id="defs4562" />
  <sodipodi:namedview
     pagecolor="#ffffff"
     bordercolor="#666666"
     borderopacity="1"
     objecttolerance="10"
     gridtolerance="10"
     guidetolerance="10"
     inkscape:pageopacity="0"
     inkscape:pageshadow="2"
     inkscape:window-width="1391"
     inkscape:window-height="917"
     id="namedview4560"
     showgrid="false"
     inkscape:zoom="2.5587256"
     inkscape:cx="43.305394"
     inkscape:cy="29.639779"
     inkscape:window-x="0"
     inkscape:window-y="22"
     inkscape:window-maximized="0"
     inkscape:current-layer="svg4558" />
  <g
     id="g4571"
     transform="translate(-6.1083766,-6.863255)">
    <path
       id="path4548"
       d="M 90.012,8.518 89.799,8.16 c 0.754,-0.475 0.68,-0.716 0.68,-0.716 0,0 -0.371,-1.008 -1.446,-0.368 -1.07,0.645 -0.359,1.449 -0.359,1.449 0,0 0.179,0.177 0.943,-0.256 l 0.198,0.336 -2.272,1.21 -0.194,-0.33 c 0.752,-0.474 0.68,-0.716 0.68,-0.716 0,0 -0.373,-1.007 -1.449,-0.368 -1.07,0.646 -0.357,1.449 -0.357,1.449 0,0 0.176,0.179 0.941,-0.255 l 0.193,0.321 -2.185,1.163 -0.223,-0.371 c 0.754,-0.475 0.682,-0.717 0.682,-0.717 0,0 -0.373,-1.007 -1.448,-0.368 -1.07,0.645 -0.359,1.449 -0.359,1.449 0,0 0.176,0.178 0.942,-0.255 l 0.217,0.364 c -0.719,0.382 -1.465,0.78 -2.203,1.174 l -0.191,-0.321 c 0.752,-0.476 0.68,-0.717 0.68,-0.717 0,0 -0.373,-1.008 -1.447,-0.369 -1.071,0.646 -0.36,1.449 -0.36,1.449 0,0 0.181,0.179 0.942,-0.255 l 0.188,0.313 -2.229,1.188 -0.184,-0.309 c 0.756,-0.474 0.682,-0.717 0.682,-0.717 0,0 -0.373,-1.007 -1.446,-0.367 -1.07,0.645 -0.36,1.449 -0.36,1.449 0,0 0.178,0.177 0.944,-0.256 l 0.178,0.3 c -0.889,0.473 -1.668,0.891 -2.25,1.203 L 77.764,14.67 c 0.752,-0.474 0.68,-0.716 0.68,-0.716 0,0 -0.371,-1.008 -1.447,-0.368 -1.072,0.646 -0.361,1.449 -0.361,1.449 0,0 0.178,0.179 0.945,-0.256 l 0.158,0.27 -0.728,0.393 c -1.452,0.796 -1.834,1.106 -1.557,1.833 0.276,0.726 0.006,1.458 0.004,1.459 -0.019,0.017 -0.039,0.038 -0.067,0.065 -0.412,0.398 -1.847,1.791 -2.601,2.522 l -5.744,5.57 -7.28,7.063 c -2.482,2.406 -4.964,4.812 -7.443,7.219 -2.711,2.632 -5.445,5.242 -8.146,7.884 -0.792,0.777 -1.509,1.578 -2.731,1.3 -1.091,-0.248 -1.995,-1.252 -2.408,-2.262 -0.864,-2.111 -0.087,-4.4 1.277,-6.1 0.654,-0.814 2.151,-2.124 1.152,-3.208 -1.601,-1.735 -4.646,0.403 -5.986,1.482 -3.238,2.61 -4.645,6.029 -6.514,9.59 -0.941,1.793 -2.085,3.495 -3.719,4.729 -1.622,1.227 -3.445,1.68 -5.325,2.33 -1.157,0.4 -2.299,0.843 -3.415,1.35 -4.167,1.893 -8.674,4.944 -10.038,9.568 -0.666,2.254 -0.365,4.602 0.518,6.752 a 21.323,21.323 0 0 0 1.633,3.169 c 2.504,4.021 6.03,7.591 9.594,10.687 1.744,1.516 3.716,2.902 5.998,3.433 2.748,0.64 5.819,0.075 8.257,-1.304 4.857,-2.748 7.449,-11.631 7.449,-11.631 0.331,-1.062 0.659,-2.125 1.084,-3.151 0.761,-1.835 1.89,-3.381 3.572,-4.47 0.83,-0.536 1.724,-0.965 2.616,-1.385 1.091,-0.513 2.185,-0.951 3.218,-1.578 1.552,-0.942 2.993,-2.17 3.803,-3.828 0.233,-0.481 0.535,-1.123 0.554,-1.68 0.024,-0.802 -0.316,-1.828 -1.226,-1.978 -0.925,-0.151 -1.677,0.542 -2.418,0.978 -0.938,0.551 -1.959,1.016 -3.05,1.148 -0.927,0.113 -1.769,-0.264 -2.491,-0.821 -0.949,-0.733 -2.045,-2.18 -2.075,-3.456 -0.002,-0.117 -0.037,-0.197 0.058,-0.296 0.031,-0.032 31.75,-32.822 34.772,-35.844 3.025,-3.025 5.549,-1.503 5.549,-1.503 1.695,-1.659 3.891,-5.41 4.787,-6.793 0.9,-1.382 2.18,0.242 3.732,-0.587 1.557,-0.83 2.594,-3.111 1.16,-4.685 C 92.367,7.702 90.578,8.284 90.012,8.518 Z m -50.45,44.193 c 0.634,2.104 1.523,4.114 2.426,6.113 0.977,2.164 1.793,4.693 4.342,5.422 0.582,0.165 1.287,0.279 1.893,0.234 1.5,-0.107 2.794,-0.832 4.039,-1.621 0.273,-0.174 0.856,-0.709 1.129,-0.312 0.272,0.395 -0.068,1.227 -0.246,1.584 -0.412,0.834 -1.125,1.508 -1.836,2.09 -2.394,1.959 -5.368,2.723 -7.919,4.389 -1.292,0.844 -2.149,2.062 -2.807,3.438 -1.059,2.212 -1.905,4.525 -2.801,6.807 -0.133,0.34 -0.267,0.681 -0.402,1.021 -0.433,1.096 -0.893,2.146 -1.466,3.178 -0.479,0.862 -1.409,2.461 -2.663,2.19 -0.46,-0.101 -0.777,-0.562 -0.967,-0.962 -0.458,-0.963 -0.432,-2.133 -0.441,-3.174 -0.011,-1.269 -0.348,-2.601 -0.88,-3.748 -0.471,-1.016 -1.133,-1.898 -1.878,-2.717 -0.734,-0.809 -1.549,-1.554 -2.335,-2.301 -1.191,-1.132 -2.299,-2.355 -3.537,-3.438 -0.816,-0.719 -1.987,-1.611 -2.306,-2.711 -0.793,-2.731 1.656,-5.295 3.748,-6.607 A 15.75,15.75 0 0 1 26.766,60.5 c 2.567,-1.109 5.087,-2.314 7.129,-4.273 1.232,-1.184 2.043,-2.559 2.991,-3.955 0.268,-0.393 0.568,-0.847 1.031,-1.022 1.034,-0.4 1.41,0.686 1.645,1.461 z"
       inkscape:connector-curvature="0" />
    <circle
       id="circle4550"
       r="1.434"
       cy="84.067001"
       cx="33.902" />
    <circle
       id="circle4552"
       r="1.4349999"
       cy="79.112"
       cx="33.463001" />
    <circle
       id="circle4554"
       r="1.434"
       cy="74.273003"
       cx="32.081001" />
    <path
       id="path4556"
       d="m 35.811,65.986 a 1.038,1.038 0 0 1 0,1.469 1.043,1.043 0 0 1 -1.47,0 l -4.077,-4.078 a 1.0390935,1.0390935 0 1 1 1.469,-1.47 z m -4.8,5.002 A 1.037,1.037 0 0 1 30.74,72.431 1.041,1.041 0 0 1 29.296,72.16 L 26.04,67.4 a 1.0390188,1.0390188 0 1 1 1.716,-1.172 z m 9.604,-9.806 a 1.04,1.04 0 0 1 -1.469,1.469 l -4.078,-4.077 a 1.0390935,1.0390935 0 1 1 1.469,-1.47 z"
       inkscape:connector-curvature="0" />
  </g>
</svg>
