<?xml version="1.0" standalone="no"?>
<!DOCTYPE svg PUBLIC "-//W3C//DTD SVG 20010904//EN"
 "http://www.w3.org/TR/2001/REC-SVG-20010904/DTD/svg10.dtd">
<svg version="1.0" xmlns="http://www.w3.org/2000/svg"
 width="704.000000pt" height="704.000000pt" viewBox="0 0 704.000000 704.000000"
 preserveAspectRatio="xMidYMid meet">
<metadata>
Created by potrace 1.11, written by Peter Selinger 2001-2013
</metadata>
<g transform="translate(0.000000,704.000000) scale(0.100000,-0.100000)"
fill="#000000" stroke="none">
<path d="M6640 6910 c0 -5 -6 -10 -14 -10 -21 0 -52 -51 -48 -78 5 -32 33 -44
65 -27 27 14 44 5 32 -15 -4 -6 -39 -26 -78 -46 -39 -19 -76 -39 -83 -45 -24
-20 -22 19 2 42 28 26 30 42 8 63 -25 26 -78 20 -113 -13 -33 -31 -38 -50 -21
-82 12 -21 40 -25 57 -8 7 7 17 8 28 2 21 -12 15 -17 -82 -69 -59 -31 -75 -36
-85 -25 -11 10 -10 14 4 22 44 25 44 73 0 90 -19 7 -35 5 -68 -11 -36 -18 -45
-28 -50 -57 -9 -50 13 -71 56 -53 20 8 34 10 41 3 13 -13 3 -21 -93 -71 -57
-31 -77 -38 -81 -28 -3 8 5 23 19 35 29 25 30 42 4 66 -40 36 -133 -9 -137
-66 -3 -34 24 -61 48 -48 11 5 19 6 19 2 0 -4 4 -2 9 5 6 11 10 10 19 -1 9
-11 -5 -23 -77 -61 -61 -32 -92 -43 -97 -35 -3 6 5 21 21 33 32 26 29 55 -9
76 -21 11 -31 10 -70 -9 -49 -24 -61 -45 -51 -90 5 -22 12 -28 31 -28 13 0 27
3 30 8 8 14 34 11 34 -3 0 -12 -153 -98 -172 -98 -16 0 -7 22 16 43 50 45 -17
97 -81 63 -52 -26 -71 -70 -46 -105 13 -19 16 -20 48 -7 25 11 35 11 38 3 2
-6 -31 -32 -72 -56 -95 -55 -110 -72 -103 -114 2 -17 5 -54 6 -80 l1 -49 -150
-145 c-83 -80 -269 -261 -414 -402 -145 -141 -305 -296 -356 -346 -51 -49
-198 -191 -325 -315 -128 -124 -270 -261 -315 -305 -45 -44 -194 -188 -331
-321 -137 -133 -307 -298 -379 -366 -71 -69 -170 -165 -220 -213 -49 -48 -107
-95 -128 -105 -96 -44 -213 13 -278 136 -50 92 -59 218 -24 321 21 60 75 163
86 163 5 0 9 6 9 14 0 8 3 16 8 18 13 6 89 102 106 135 27 54 21 88 -23 131
-40 39 -47 42 -111 42 -51 1 -88 -9 -157 -42 -127 -59 -285 -191 -389 -323
-21 -27 -42 -51 -46 -53 -5 -2 -8 -8 -8 -14 0 -5 -13 -28 -29 -52 -25 -36 -50
-79 -95 -161 -6 -11 -15 -23 -21 -27 -5 -4 -6 -8 -1 -8 5 0 4 -6 -1 -12 -6 -7
-47 -85 -93 -173 -45 -88 -86 -161 -91 -163 -5 -2 -9 -8 -9 -12 0 -16 -87
-134 -137 -185 -102 -106 -206 -167 -404 -233 -63 -21 -119 -41 -125 -44 -5
-3 -34 -13 -64 -23 -30 -10 -83 -31 -118 -46 -34 -16 -69 -29 -77 -29 -8 0
-15 -4 -15 -10 0 -5 -4 -10 -9 -10 -9 0 -104 -44 -131 -60 -8 -5 -51 -30 -95
-56 -166 -98 -332 -241 -416 -359 -39 -55 -111 -175 -104 -175 2 0 -5 -20 -15
-44 -34 -76 -50 -178 -45 -289 4 -102 6 -115 18 -152 3 -11 8 -32 11 -47 5
-30 68 -183 99 -238 56 -103 82 -145 89 -148 4 -2 8 -8 8 -13 0 -8 116 -178
130 -189 3 -3 35 -41 70 -84 35 -44 77 -94 93 -110 397 -420 643 -616 858
-686 92 -29 119 -33 249 -33 127 -1 171 5 275 35 64 18 213 83 225 97 3 4 28
23 55 43 64 46 143 132 206 223 27 39 52 75 56 80 5 6 15 24 23 40 8 17 17 32
20 35 32 30 205 449 236 570 2 8 12 40 22 70 59 170 125 283 218 375 56 55
196 145 285 183 115 50 269 128 312 158 26 19 49 34 52 34 12 0 127 110 168
160 45 56 98 177 101 232 6 88 -49 158 -123 158 -21 0 -183 -81 -201 -101 -10
-10 -106 -47 -160 -61 -55 -15 -71 -15 -123 -5 -104 21 -231 142 -272 258 -29
81 -25 91 89 207 57 59 135 139 173 178 94 98 521 539 613 634 41 42 183 188
315 325 132 136 274 283 315 325 329 339 602 620 731 754 334 344 605 613 634
626 17 8 37 19 45 25 49 38 204 50 261 21 26 -13 29 -11 65 26 21 22 64 77 96
122 32 44 61 86 66 91 4 6 48 73 96 150 49 77 96 148 104 158 23 27 71 35 127
22 59 -13 138 -11 143 5 2 5 8 8 12 5 16 -10 114 99 131 146 21 57 19 153 -4
184 -39 53 -53 66 -95 86 -50 25 -135 29 -187 9 -15 -6 -31 -10 -36 -10 -17 0
-9 27 16 50 31 29 31 34 3 60 -22 21 -78 28 -78 10z m-4016 -3555 c13 -14 44
-86 71 -163 26 -75 55 -155 65 -177 10 -22 46 -105 80 -185 85 -196 139 -306
167 -340 77 -91 149 -143 216 -155 12 -3 36 -8 52 -11 33 -8 97 -7 135 2 14 3
36 7 49 10 34 7 170 75 226 113 70 47 103 39 96 -24 -8 -84 -112 -210 -251
-303 -42 -27 -166 -94 -275 -147 -430 -210 -431 -211 -730 -975 -59 -151 -140
-326 -162 -348 -7 -7 -13 -19 -13 -25 -1 -13 -51 -71 -87 -101 -12 -10 -41
-20 -64 -22 -34 -3 -48 1 -67 19 -52 48 -70 115 -77 280 -3 62 -7 121 -9 132
-14 69 -54 194 -65 205 -4 3 -15 23 -26 45 -32 63 -147 202 -224 269 -13 12
-83 80 -156 151 -72 72 -174 168 -226 215 -52 47 -97 90 -102 97 -4 7 -14 18
-21 25 -52 53 -69 178 -36 274 49 141 184 280 362 372 97 50 191 92 206 92 7
0 12 4 12 8 0 5 18 15 40 22 22 7 45 19 51 27 6 7 19 13 29 13 10 0 23 7 30
15 7 8 18 15 24 15 10 0 84 46 111 68 6 5 18 13 26 18 89 51 209 179 311 329
30 44 67 99 84 122 45 65 108 81 148 38z"/>
<path d="M2310 2897 c-19 -31 -24 -87 -8 -87 4 0 8 -4 8 -8 0 -5 74 -82 164
-173 171 -171 209 -196 254 -176 31 14 51 55 45 90 -4 18 -63 85 -180 203
-169 169 -177 176 -220 179 -40 4 -46 1 -63 -28z"/>
<path d="M1960 2541 c-35 -9 -61 -64 -49 -100 11 -33 343 -363 381 -379 14 -6
29 -8 33 -4 6 7 10 8 35 11 19 2 39 63 29 88 -5 13 -6 23 -3 23 11 0 -340 346
-363 358 -24 13 -26 13 -63 3z"/>
<path d="M1623 2207 c-23 -10 -43 -47 -43 -80 0 -12 44 -86 98 -165 53 -79
102 -151 107 -160 6 -10 12 -19 15 -22 3 -3 18 -24 33 -47 34 -49 74 -69 114
-56 30 10 63 59 56 83 -10 32 -29 66 -50 90 -13 14 -23 28 -23 31 0 7 -170
255 -205 300 -22 28 -70 40 -102 26z"/>
<path d="M2031 1641 c-56 -15 -87 -106 -55 -160 59 -99 204 -63 210 53 4 83
-67 132 -155 107z"/>
<path d="M2144 1256 c-93 -40 -97 -156 -7 -207 15 -9 39 -14 53 -12 14 3 31 6
39 7 8 2 27 17 42 36 74 88 -22 221 -127 176z"/>
<path d="M2155 846 c-37 -26 -58 -77 -46 -109 6 -14 8 -27 5 -29 -2 -3 10 -17
26 -33 25 -24 39 -29 80 -30 40 0 54 5 75 25 99 99 -28 258 -140 176z"/>
</g>
</svg>
